<svg xmlns="http://www.w3.org/2000/svg" viewBox="0 0 100 100">
  <defs>
    <linearGradient id="linkGradient" x1="0%" y1="0%" x2="100%" y2="100%">
      <stop offset="0%" style="stop-color:#4F46E5;stop-opacity:1" />
      <stop offset="100%" style="stop-color:#7C3AED;stop-opacity:1" />
    </linearGradient>
  </defs>
  
  <!-- Background Circle -->
  <circle cx="50" cy="50" r="45" fill="url(#linkGradient)" />
  
  <!-- Link Chain Icon -->
  <g transform="translate(50, 50)">
    <!-- First Link -->
    <path d="M -8,-20 Q -20,-20 -20,-8 L -20,8 Q -20,20 -8,20 L 0,20 Q 12,20 12,8 L 12,-8 Q 12,-20 0,-20 Z" 
          fill="none" 
          stroke="white" 
          stroke-width="4" 
          stroke-linecap="round" />
    
    <!-- Second Link (overlapping) -->
    <path d="M 8,-10 Q 20,-10 20,2 L 20,18 Q 20,30 8,30 L 0,30 Q -12,30 -12,18 L -12,2 Q -12,-10 0,-10 Z" 
          fill="none" 
          stroke="white" 
          stroke-width="4" 
          stroke-linecap="round" />
    
    <!-- Smart indicator (dot) -->
    <circle cx="15" cy="-15" r="6" fill="white" />
  </g>
</svg>